REM DIRINDEX 1\2,1\3,1\4,1\5,1\6
REM DIRNAME cjc129,folder01,folder02,folder03,folder04,folder05
TITLE ""
FILE "DISC3Track25.mp3" MP3
  TRACK 01 AUDIO
    TITLE "0:"
    INDEX 01 00:00:00
  TRACK 02 AUDIO
    TITLE "2:cjc129_2730"
    INDEX 01 00:03:14
  TRACK 03 AUDIO
    TITLE "0:"
    INDEX 01 00:08:23
  TRACK 04 AUDIO
    TITLE "2:cjc129_2731"
    INDEX 01 00:09:36
  TRACK 05 AUDIO
    TITLE "0:"
    INDEX 01 00:13:51
  TRACK 06 AUDIO
    TITLE "3:cjc129_2732"
    INDEX 01 00:14:62
  TRACK 07 AUDIO
    TITLE "0:"
    INDEX 01 00:16:12
  TRACK 08 AUDIO
    TITLE "5:cjc129_2733"
    INDEX 01 00:16:42
  TRACK 09 AUDIO
    TITLE "0:"
    INDEX 01 00:20:59
  TRACK 10 AUDIO
    TITLE "4:cjc129_2734"
    INDEX 01 00:21:49
  TRACK 11 AUDIO
    TITLE "0:"
    INDEX 01 00:22:74
  TRACK 12 AUDIO
    TITLE "6:cjc129_2735"
    INDEX 01 00:23:28
  TRACK 13 AUDIO
    TITLE "0:"
    INDEX 01 00:28:25
  TRACK 14 AUDIO
    TITLE "3:cjc129_2736"
    INDEX 01 00:30:01
  TRACK 15 AUDIO
    TITLE "0:"
    INDEX 01 00:31:47
  TRACK 16 AUDIO
    TITLE "5:cjc129_2737"
    INDEX 01 00:31:71
  TRACK 17 AUDIO
    TITLE "0:"
    INDEX 01 00:36:25
  TRACK 18 AUDIO
    TITLE "4:cjc129_2738"
    INDEX 01 00:37:16
  TRACK 19 AUDIO
    TITLE "0:"
    INDEX 01 00:38:61
  TRACK 20 AUDIO
    TITLE "6:cjc129_2739"
    INDEX 01 00:39:09
  TRACK 21 AUDIO
    TITLE "0:"
    INDEX 01 00:43:19
  TRACK 22 AUDIO
    TITLE "3:cjc129_2740"
    INDEX 01 00:44:71
  TRACK 23 AUDIO
    TITLE "0:"
    INDEX 01 00:48:48
  TRACK 24 AUDIO
    TITLE "5:cjc129_2741"
    INDEX 01 00:49:02
  TRACK 25 AUDIO
    TITLE "0:"
    INDEX 01 00:51:30
  TRACK 26 AUDIO
    TITLE "4:cjc129_2742"
    INDEX 01 00:52:24
  TRACK 27 AUDIO
    TITLE "0:"
    INDEX 01 00:55:73
  TRACK 28 AUDIO
    TITLE "6:cjc129_2743"
    INDEX 01 00:56:31
  TRACK 29 AUDIO
    TITLE "0:"
    INDEX 01 01:01:23
  TRACK 30 AUDIO
    TITLE "3:cjc129_2744"
    INDEX 01 01:02:73
  TRACK 31 AUDIO
    TITLE "0:"
    INDEX 01 01:04:11
  TRACK 32 AUDIO
    TITLE "5:cjc129_2745"
    INDEX 01 01:04:43
  TRACK 33 AUDIO
    TITLE "0:"
    INDEX 01 01:06:26
  TRACK 34 AUDIO
    TITLE "4:cjc129_2746"
    INDEX 01 01:07:19
  TRACK 35 AUDIO
    TITLE "0:"
    INDEX 01 01:08:31
  TRACK 36 AUDIO
    TITLE "6:cjc129_2747"
    INDEX 01 01:08:64
  TRACK 37 AUDIO
    TITLE "0:"
    INDEX 01 01:13:53
  TRACK 38 AUDIO
    TITLE "3:cjc129_2748"
    INDEX 01 01:15:27
  TRACK 39 AUDIO
    TITLE "0:"
    INDEX 01 01:17:00
  TRACK 40 AUDIO
    TITLE "5:cjc129_2749"
    INDEX 01 01:17:32
  TRACK 41 AUDIO
    TITLE "0:"
    INDEX 01 01:19:40
  TRACK 42 AUDIO
    TITLE "4:cjc129_2750"
    INDEX 01 01:20:30
  TRACK 43 AUDIO
    TITLE "0:"
    INDEX 01 01:22:03
  TRACK 44 AUDIO
    TITLE "6:cjc129_2751"
    INDEX 01 01:22:35
  TRACK 45 AUDIO
    TITLE "0:"
    INDEX 01 01:26:64
  TRACK 46 AUDIO
    TITLE "3:cjc129_2752"
    INDEX 01 01:28:41
  TRACK 47 AUDIO
    TITLE "0:"
    INDEX 01 01:30:44
  TRACK 48 AUDIO
    TITLE "5:cjc129_2753"
    INDEX 01 01:31:00
  TRACK 49 AUDIO
    TITLE "0:"
    INDEX 01 01:33:11
  TRACK 50 AUDIO
    TITLE "4:cjc129_2754"
    INDEX 01 01:34:05
  TRACK 51 AUDIO
    TITLE "0:"
    INDEX 01 01:36:07
  TRACK 52 AUDIO
    TITLE "6:cjc129_2755"
    INDEX 01 01:36:39
  TRACK 53 AUDIO
    TITLE "0:"
    INDEX 01 01:41:32
  TRACK 54 AUDIO
    TITLE "3:cjc129_2756"
    INDEX 01 01:43:05
  TRACK 55 AUDIO
    TITLE "0:"
    INDEX 01 01:44:50
  TRACK 56 AUDIO
    TITLE "5:cjc129_2757"
    INDEX 01 01:45:08
  TRACK 57 AUDIO
    TITLE "0:"
    INDEX 01 01:47:46
  TRACK 58 AUDIO
    TITLE "4:cjc129_2758"
    INDEX 01 01:48:38
  TRACK 59 AUDIO
    TITLE "0:"
    INDEX 01 01:50:11
  TRACK 60 AUDIO
    TITLE "6:cjc129_2759"
    INDEX 01 01:50:43
  TRACK 61 AUDIO
    TITLE "0:"
    INDEX 01 01:55:16
  TRACK 62 AUDIO
    TITLE "3:cjc129_2760"
    INDEX 01 01:56:65
  TRACK 63 AUDIO
    TITLE "0:"
    INDEX 01 01:58:36
  TRACK 64 AUDIO
    TITLE "5:cjc129_2761"
    INDEX 01 01:58:68
  TRACK 65 AUDIO
    TITLE "0:"
    INDEX 01 02:00:37
  TRACK 66 AUDIO
    TITLE "4:cjc129_2762"
    INDEX 01 02:01:27
  TRACK 67 AUDIO
    TITLE "0:"
    INDEX 01 02:03:00
  TRACK 68 AUDIO
    TITLE "6:cjc129_2763"
    INDEX 01 02:03:32
  TRACK 69 AUDIO
    TITLE "0:"
    INDEX 01 02:07:16
